<svg xmlns="http://www.w3.org/2000/svg" xmlns:xlink="http://www.w3.org/1999/xlink" width="500" zoomAndPan="magnify" viewBox="0 0 375 374.999991" height="500" preserveAspectRatio="xMidYMid meet" version="1.2"><defs><clipPath id="5f9f31d339"><path d="M 117 144.386719 L 141 144.386719 L 141 153 L 117 153 Z M 117 144.386719 "/></clipPath><clipPath id="92dfc3aab8"><path d="M 116 169 L 121 169 L 121 172.886719 L 116 172.886719 Z M 116 169 "/></clipPath><clipPath id="9d2fb8f8ac"><path d="M 122 169 L 127 169 L 127 172.886719 L 122 172.886719 Z M 122 169 "/></clipPath><clipPath id="5b5aaacef7"><path d="M 107.621094 155 L 129 155 L 129 169 L 107.621094 169 Z M 107.621094 155 "/></clipPath><clipPath id="fe615549ad"><path d="M 130.0625 159.777344 L 142.449219 159.777344 L 142.449219 166.789062 L 130.0625 166.789062 Z M 130.0625 159.777344 "/></clipPath><clipPath id="ffce77eb73"><path d="M 128 161 L 134 161 L 134 169 L 128 169 Z M 128 161 "/></clipPath><clipPath id="d5d8d004d5"><path d="M 128.351562 166.820312 L 129.953125 161.84375 L 133.898438 163.109375 L 132.296875 168.089844 Z M 128.351562 166.820312 "/></clipPath></defs><g id="6713a6d704"><g style="fill:#ffde59;fill-opacity:1;"><g transform="translate(145.560119, 184.775559)"><path style="stroke:none" d="M 5.109375 -7.125 C 5.109375 -7.457031 4.992188 -7.769531 4.765625 -8.0625 C 4.535156 -8.363281 4.238281 -8.675781 3.875 -9 C 3.507812 -9.320312 3.117188 -9.671875 2.703125 -10.046875 C 2.285156 -10.421875 1.894531 -10.847656 1.53125 -11.328125 C 1.175781 -11.816406 0.882812 -12.378906 0.65625 -13.015625 C 0.425781 -13.660156 0.3125 -14.394531 0.3125 -15.21875 C 0.3125 -16.363281 0.535156 -17.320312 0.984375 -18.09375 C 1.429688 -18.863281 2.007812 -19.445312 2.71875 -19.84375 C 3.4375 -20.238281 4.191406 -20.4375 4.984375 -20.4375 L 11.265625 -20.4375 L 11.265625 -14.3125 L 9.625 -14.3125 C 9.351562 -14.3125 9.066406 -14.296875 8.765625 -14.265625 C 8.460938 -14.234375 8.207031 -14.144531 8 -14 C 7.800781 -13.851562 7.703125 -13.585938 7.703125 -13.203125 C 7.703125 -12.878906 7.8125 -12.597656 8.03125 -12.359375 C 8.25 -12.117188 8.53125 -11.882812 8.875 -11.65625 C 9.226562 -11.4375 9.597656 -11.179688 9.984375 -10.890625 C 10.367188 -10.609375 10.734375 -10.257812 11.078125 -9.84375 C 11.429688 -9.4375 11.71875 -8.925781 11.9375 -8.3125 C 12.15625 -7.695312 12.265625 -6.941406 12.265625 -6.046875 C 12.265625 -4.878906 12.035156 -3.835938 11.578125 -2.921875 C 11.128906 -2.003906 10.488281 -1.285156 9.65625 -0.765625 C 8.832031 -0.253906 7.847656 0 6.703125 0 L 0.59375 0 L 0.59375 -6.125 L 2.9375 -6.125 C 3.664062 -6.125 4.207031 -6.195312 4.5625 -6.34375 C 4.925781 -6.488281 5.109375 -6.75 5.109375 -7.125 Z M 5.109375 -7.125 "/></g></g><g style="fill:#ffde59;fill-opacity:1;"><g transform="translate(160.728604, 184.775559)"><path style="stroke:none" d="M 0.3125 -10.21875 C 0.3125 -12.257812 0.609375 -14.046875 1.203125 -15.578125 C 1.804688 -17.109375 2.722656 -18.300781 3.953125 -19.15625 C 5.179688 -20.007812 6.738281 -20.4375 8.625 -20.4375 L 11.6875 -20.4375 L 11.734375 -14.40625 C 11.347656 -14.40625 10.988281 -14.40625 10.65625 -14.40625 C 10.320312 -14.40625 10.019531 -14.40625 9.75 -14.40625 C 8.59375 -14.40625 7.75 -14.015625 7.21875 -13.234375 C 6.695312 -12.460938 6.4375 -11.457031 6.4375 -10.21875 C 6.4375 -9.40625 6.546875 -8.679688 6.765625 -8.046875 C 6.984375 -7.410156 7.332031 -6.914062 7.8125 -6.5625 C 8.300781 -6.207031 8.941406 -6.03125 9.734375 -6.03125 C 10.085938 -6.03125 10.4375 -6.03125 10.78125 -6.03125 C 11.125 -6.03125 11.441406 -6.03125 11.734375 -6.03125 L 11.6875 0 L 8.625 0 C 6.738281 0 5.179688 -0.421875 3.953125 -1.265625 C 2.722656 -2.117188 1.804688 -3.3125 1.203125 -4.84375 C 0.609375 -6.382812 0.3125 -8.175781 0.3125 -10.21875 Z M 0.3125 -10.21875 "/></g></g><g style="fill:#ffde59;fill-opacity:1;"><g transform="translate(175.365591, 184.775559)"><path style="stroke:none" d="M 0.3125 0 L 0.3125 -20.421875 L 7.5 -20.421875 C 8.175781 -20.421875 8.898438 -20.3125 9.671875 -20.09375 C 10.441406 -19.875 11.164062 -19.515625 11.84375 -19.015625 C 12.53125 -18.515625 13.085938 -17.851562 13.515625 -17.03125 C 13.941406 -16.21875 14.15625 -15.210938 14.15625 -14.015625 C 14.15625 -13.046875 14.03125 -12.222656 13.78125 -11.546875 C 13.539062 -10.878906 13.242188 -10.335938 12.890625 -9.921875 C 12.535156 -9.503906 12.191406 -9.1875 11.859375 -8.96875 L 14.875 0.015625 L 8.90625 0 L 6.4375 -7.71875 L 6.4375 0 Z M 6.953125 -14.6875 L 6.4375 -14.71875 L 6.4375 -11.75 L 6.921875 -11.75 C 7.179688 -11.75 7.394531 -11.84375 7.5625 -12.03125 C 7.726562 -12.226562 7.835938 -12.46875 7.890625 -12.75 C 7.953125 -13.039062 7.957031 -13.332031 7.90625 -13.625 C 7.863281 -13.914062 7.765625 -14.160156 7.609375 -14.359375 C 7.453125 -14.566406 7.234375 -14.675781 6.953125 -14.6875 Z M 6.953125 -14.6875 "/></g></g><g style="fill:#ffde59;fill-opacity:1;"><g transform="translate(192.414778, 184.775559)"><path style="stroke:none" d="M 6.171875 0 L 0 0 L 5.265625 -20.421875 L 11.4375 -20.421875 L 16.734375 0 L 10.5625 0 L 10.140625 -1.9375 L 6.578125 -1.9375 Z M 8.359375 -10.21875 L 7.6875 -7.046875 L 9.046875 -7.046875 Z M 8.359375 -10.21875 "/></g></g><g style="fill:#ffde59;fill-opacity:1;"><g transform="translate(207.092475, 184.775559)"><path style="stroke:none" d="M 5.296875 0 L 0 -20.421875 L 6.125 -20.421875 L 8.21875 -10.203125 L 10.28125 -20.421875 L 15.3125 -20.421875 L 17.390625 -10.203125 L 19.453125 -20.421875 L 25.59375 -20.421875 L 20.296875 0 L 14.46875 0 L 12.796875 -8.296875 L 11.125 0 Z M 5.296875 0 "/></g></g><g style="fill:#ffde59;fill-opacity:1;"><g transform="translate(235.282752, 184.775559)"><path style="stroke:none" d="M 0.3125 -20.421875 L 6.4375 -20.4375 L 6.4375 -6.125 L 11.265625 -6.125 L 11.265625 0 L 0.3125 0 Z M 0.3125 -20.421875 "/></g></g><g style="fill:#f5fbf9;fill-opacity:1;"><g transform="translate(127.926822, 184.152504)"><path style="stroke:none" d="M 15.28125 0 L 0.375 0 L 0.375 -25.109375 L 15.28125 -25.109375 L 15.28125 -17.578125 L 7.921875 -17.578125 L 7.921875 -16.3125 L 13.78125 -16.3125 L 13.78125 -8.78125 L 7.921875 -8.78125 L 7.921875 -7.546875 L 15.28125 -7.546875 Z M 15.28125 0 "/></g></g><path style=" stroke:none;fill-rule:nonzero;fill:#1c2143;fill-opacity:1;" d="M 134.273438 157.039062 C 133.824219 157.039062 133.480469 157.382812 133.480469 157.832031 L 133.480469 160.46875 C 133.480469 160.917969 133.824219 161.261719 134.273438 161.261719 L 136.914062 161.261719 C 137.359375 161.261719 137.703125 160.917969 137.703125 160.46875 L 137.703125 157.832031 C 137.703125 157.382812 137.359375 157.039062 136.914062 157.039062 Z M 134.273438 157.039062 "/><g clip-rule="nonzero" clip-path="url(#5f9f31d339)"><path style=" stroke:none;fill-rule:nonzero;fill:#1c2143;fill-opacity:1;" d="M 119.207031 152.816406 L 119.3125 152.816406 C 119.945312 152.816406 120.5 152.554688 120.867188 152.105469 C 121.265625 152.527344 121.820312 152.816406 122.425781 152.816406 L 122.53125 152.816406 C 123.164062 152.816406 123.71875 152.554688 124.089844 152.105469 C 124.511719 152.554688 125.0625 152.816406 125.699219 152.816406 L 125.804688 152.816406 C 126.4375 152.816406 126.992188 152.554688 127.359375 152.105469 C 127.757812 152.527344 128.308594 152.816406 128.917969 152.816406 L 129.023438 152.816406 C 129.65625 152.816406 130.210938 152.554688 130.578125 152.105469 C 130.976562 152.527344 131.53125 152.816406 132.136719 152.816406 L 132.242188 152.816406 C 132.875 152.816406 133.429688 152.554688 133.796875 152.105469 C 134.195312 152.527344 134.75 152.816406 135.355469 152.816406 L 135.460938 152.816406 C 136.09375 152.816406 136.648438 152.554688 137.019531 152.105469 C 137.414062 152.527344 137.96875 152.816406 138.574219 152.816406 L 138.679688 152.816406 C 139.839844 152.816406 140.765625 151.867188 140.765625 150.730469 C 140.765625 150.730469 140.765625 148.859375 140.765625 148.859375 C 140.765625 148.726562 140.710938 148.59375 140.605469 148.488281 L 136.9375 144.820312 C 136.675781 144.558594 136.277344 144.398438 135.882812 144.398438 L 121.976562 144.398438 C 121.582031 144.398438 121.210938 144.558594 120.921875 144.820312 C 120.921875 144.820312 117.253906 148.488281 117.253906 148.488281 C 117.148438 148.59375 117.09375 148.726562 117.09375 148.859375 L 117.09375 150.730469 C 117.121094 151.867188 118.070312 152.816406 119.207031 152.816406 Z M 121.6875 145.558594 C 121.765625 145.480469 121.871094 145.429688 121.976562 145.429688 L 135.988281 145.429688 C 136.09375 145.429688 136.199219 145.480469 136.277344 145.558594 L 139.050781 148.332031 L 118.914062 148.332031 Z M 121.6875 145.558594 "/></g><g clip-rule="nonzero" clip-path="url(#92dfc3aab8)"><path style=" stroke:none;fill-rule:nonzero;fill:#1c2143;fill-opacity:1;" d="M 120.023438 171.023438 C 120.023438 171.269531 119.976562 171.503906 119.882812 171.730469 C 119.789062 171.957031 119.65625 172.15625 119.484375 172.332031 C 119.308594 172.503906 119.109375 172.636719 118.882812 172.730469 C 118.65625 172.824219 118.421875 172.871094 118.175781 172.871094 C 117.933594 172.871094 117.695312 172.824219 117.46875 172.730469 C 117.242188 172.636719 117.042969 172.503906 116.871094 172.332031 C 116.699219 172.15625 116.5625 171.957031 116.46875 171.730469 C 116.375 171.503906 116.328125 171.269531 116.328125 171.023438 C 116.328125 170.78125 116.375 170.542969 116.46875 170.316406 C 116.5625 170.089844 116.699219 169.890625 116.871094 169.71875 C 117.042969 169.546875 117.242188 169.410156 117.46875 169.316406 C 117.695312 169.222656 117.933594 169.175781 118.175781 169.175781 C 118.421875 169.175781 118.65625 169.222656 118.882812 169.316406 C 119.109375 169.410156 119.308594 169.546875 119.484375 169.71875 C 119.65625 169.890625 119.789062 170.089844 119.882812 170.316406 C 119.976562 170.542969 120.023438 170.78125 120.023438 171.023438 Z M 120.023438 171.023438 "/></g><g clip-rule="nonzero" clip-path="url(#9d2fb8f8ac)"><path style=" stroke:none;fill-rule:nonzero;fill:#1c2143;fill-opacity:1;" d="M 126.621094 171.023438 C 126.621094 171.269531 126.574219 171.503906 126.480469 171.730469 C 126.386719 171.957031 126.253906 172.15625 126.082031 172.332031 C 125.90625 172.503906 125.707031 172.636719 125.480469 172.730469 C 125.253906 172.824219 125.019531 172.871094 124.773438 172.871094 C 124.527344 172.871094 124.292969 172.824219 124.066406 172.730469 C 123.839844 172.636719 123.640625 172.503906 123.46875 172.332031 C 123.292969 172.15625 123.160156 171.957031 123.066406 171.730469 C 122.972656 171.503906 122.925781 171.269531 122.925781 171.023438 C 122.925781 170.78125 122.972656 170.542969 123.066406 170.316406 C 123.160156 170.089844 123.292969 169.890625 123.46875 169.71875 C 123.640625 169.546875 123.839844 169.410156 124.066406 169.316406 C 124.292969 169.222656 124.527344 169.175781 124.773438 169.175781 C 125.019531 169.175781 125.253906 169.222656 125.480469 169.316406 C 125.707031 169.410156 125.90625 169.546875 126.082031 169.71875 C 126.253906 169.890625 126.386719 170.089844 126.480469 170.316406 C 126.574219 170.542969 126.621094 170.78125 126.621094 171.023438 Z M 126.621094 171.023438 "/></g><path style=" stroke:none;fill-rule:nonzero;fill:#1c2143;fill-opacity:1;" d="M 113.425781 164.425781 L 111.84375 164.425781 C 111.554688 164.425781 111.316406 164.664062 111.316406 164.953125 C 111.316406 165.246094 111.554688 165.484375 111.84375 165.484375 L 113.425781 165.484375 C 113.71875 165.484375 113.953125 165.246094 113.953125 164.953125 C 113.953125 164.664062 113.71875 164.425781 113.425781 164.425781 Z M 113.425781 164.425781 "/><path style=" stroke:none;fill-rule:nonzero;fill:#1c2143;fill-opacity:1;" d="M 113.164062 162.84375 C 113.164062 162.554688 112.925781 162.316406 112.636719 162.316406 L 109.996094 162.316406 C 109.707031 162.316406 109.46875 162.554688 109.46875 162.84375 C 109.46875 163.132812 109.707031 163.371094 109.996094 163.371094 L 112.636719 163.371094 C 112.925781 163.371094 113.164062 163.132812 113.164062 162.84375 Z M 113.164062 162.84375 "/><path style=" stroke:none;fill-rule:nonzero;fill:#1c2143;fill-opacity:1;" d="M 118.175781 153.6875 L 118.175781 158.042969 L 119.234375 158.042969 L 119.234375 153.871094 L 119.207031 153.871094 C 118.863281 153.871094 118.492188 153.820312 118.175781 153.6875 Z M 118.175781 153.6875 "/><path style=" stroke:none;fill-rule:nonzero;fill:#1c2143;fill-opacity:1;" d="M 123.71875 157.039062 L 121.078125 157.039062 C 120.632812 157.039062 120.289062 157.382812 120.289062 157.832031 L 120.289062 158.042969 L 124.511719 158.042969 L 124.511719 157.832031 C 124.511719 157.382812 124.167969 157.039062 123.71875 157.039062 Z M 123.71875 157.039062 "/><path style=" stroke:none;fill-rule:nonzero;fill:#1c2143;fill-opacity:1;" d="M 139.921875 163.109375 L 139.816406 163.109375 L 139.816406 153.6875 C 139.5 153.792969 139.128906 153.871094 138.785156 153.871094 L 138.757812 153.871094 L 138.757812 163.109375 L 132.425781 163.109375 L 132.425781 155.71875 C 132.425781 155.140625 131.953125 154.664062 131.371094 154.664062 L 126.621094 154.664062 C 126.039062 154.664062 125.566406 155.140625 125.566406 155.71875 L 125.566406 158.042969 L 127.570312 158.042969 C 128.335938 158.042969 129.101562 158.410156 129.550781 159.070312 C 130.023438 159.703125 130.15625 160.546875 129.945312 161.289062 C 129.945312 161.289062 129.496094 162.710938 129.050781 164.164062 L 139.921875 164.164062 C 140.160156 164.164062 140.34375 164.402344 140.34375 164.691406 L 140.34375 165.21875 L 128.707031 165.21875 C 128.601562 165.589844 128.46875 165.957031 128.390625 166.273438 L 140.871094 166.273438 C 141.160156 166.273438 141.398438 166.035156 141.398438 165.746094 L 141.398438 164.691406 C 141.398438 163.820312 140.738281 163.109375 139.921875 163.109375 Z M 139.921875 163.109375 "/><g clip-rule="nonzero" clip-path="url(#5b5aaacef7)"><path style=" stroke:none;fill-rule:nonzero;fill:#1c2143;fill-opacity:1;" d="M 128.707031 159.675781 C 128.441406 159.335938 128.046875 159.097656 127.570312 159.097656 L 116.566406 159.097656 C 116.277344 159.097656 116.039062 159.335938 116.039062 159.625 C 116.039062 159.914062 116.277344 160.152344 116.566406 160.152344 C 116.566406 160.152344 127.570312 160.152344 127.570312 160.152344 C 127.835938 160.152344 127.992188 160.417969 127.941406 160.652344 L 127.492188 162.078125 L 124.273438 162.078125 C 123.984375 162.078125 123.746094 162.316406 123.746094 162.605469 C 123.746094 162.898438 123.984375 163.132812 124.273438 163.132812 L 127.148438 163.132812 L 126.832031 164.191406 L 125.566406 164.191406 C 125.277344 164.191406 125.039062 164.425781 125.039062 164.71875 C 125.039062 165.007812 125.277344 165.246094 125.566406 165.246094 L 126.488281 165.246094 L 126.015625 166.800781 C 125.960938 166.960938 125.828125 167.066406 125.644531 167.066406 L 117.808594 167.066406 C 117.648438 167.066406 117.492188 166.960938 117.4375 166.800781 L 114.402344 157.855469 C 114.246094 157.355469 113.769531 157.039062 113.269531 157.039062 L 112.371094 157.039062 L 112.371094 156.511719 C 112.371094 156.21875 112.132812 155.984375 111.84375 155.984375 L 109.207031 155.984375 C 108.335938 155.984375 107.621094 156.695312 107.621094 157.566406 C 107.621094 158.4375 108.335938 159.148438 109.207031 159.148438 L 111.84375 159.148438 C 112.132812 159.148438 112.371094 158.914062 112.371094 158.621094 L 112.371094 158.09375 L 113.269531 158.09375 C 113.320312 158.09375 113.402344 158.148438 113.425781 158.199219 L 116.460938 167.144531 C 116.671875 167.726562 117.199219 168.121094 117.835938 168.121094 L 125.671875 168.121094 C 126.304688 168.121094 126.859375 167.726562 127.042969 167.117188 C 127.042969 167.117188 128.941406 160.96875 128.941406 160.96875 C 129.074219 160.523438 128.96875 160.046875 128.707031 159.675781 Z M 128.707031 159.675781 "/></g><g clip-rule="nonzero" clip-path="url(#fe615549ad)"><path style=" stroke:none;fill-rule:nonzero;fill:#ffffff;fill-opacity:1;" d="M 130.0625 159.777344 L 142.441406 159.777344 L 142.441406 166.789062 L 130.0625 166.789062 Z M 130.0625 159.777344 "/></g><g style="fill:#ffde59;fill-opacity:1;"><g transform="translate(123.82586, 151.6044)"><path style="stroke:none" d="M 0.53125 -0.734375 C 0.53125 -0.765625 0.515625 -0.796875 0.484375 -0.828125 C 0.460938 -0.859375 0.429688 -0.890625 0.390625 -0.921875 C 0.359375 -0.953125 0.320312 -0.988281 0.28125 -1.03125 C 0.238281 -1.070312 0.195312 -1.113281 0.15625 -1.15625 C 0.125 -1.207031 0.09375 -1.265625 0.0625 -1.328125 C 0.0390625 -1.398438 0.03125 -1.476562 0.03125 -1.5625 C 0.03125 -1.675781 0.0507812 -1.769531 0.09375 -1.84375 C 0.144531 -1.925781 0.207031 -1.988281 0.28125 -2.03125 C 0.351562 -2.070312 0.429688 -2.09375 0.515625 -2.09375 L 1.15625 -2.09375 L 1.15625 -1.46875 L 0.984375 -1.46875 C 0.953125 -1.46875 0.921875 -1.460938 0.890625 -1.453125 C 0.867188 -1.453125 0.847656 -1.441406 0.828125 -1.421875 C 0.804688 -1.410156 0.796875 -1.390625 0.796875 -1.359375 C 0.796875 -1.316406 0.804688 -1.285156 0.828125 -1.265625 C 0.847656 -1.242188 0.875 -1.21875 0.90625 -1.1875 C 0.945312 -1.164062 0.984375 -1.140625 1.015625 -1.109375 C 1.054688 -1.085938 1.09375 -1.054688 1.125 -1.015625 C 1.164062 -0.972656 1.195312 -0.921875 1.21875 -0.859375 C 1.238281 -0.796875 1.25 -0.71875 1.25 -0.625 C 1.25 -0.5 1.226562 -0.390625 1.1875 -0.296875 C 1.144531 -0.203125 1.078125 -0.128906 0.984375 -0.078125 C 0.898438 -0.0234375 0.800781 0 0.6875 0 L 0.0625 0 L 0.0625 -0.625 L 0.296875 -0.625 C 0.367188 -0.625 0.425781 -0.628906 0.46875 -0.640625 C 0.507812 -0.660156 0.53125 -0.691406 0.53125 -0.734375 Z M 0.53125 -0.734375 "/></g></g><g style="fill:#ffde59;fill-opacity:1;"><g transform="translate(125.379791, 151.6044)"><path style="stroke:none" d="M 0.03125 -1.046875 C 0.03125 -1.253906 0.0625 -1.4375 0.125 -1.59375 C 0.1875 -1.75 0.28125 -1.867188 0.40625 -1.953125 C 0.53125 -2.046875 0.691406 -2.09375 0.890625 -2.09375 L 1.203125 -2.09375 L 1.203125 -1.46875 C 1.160156 -1.46875 1.125 -1.46875 1.09375 -1.46875 C 1.0625 -1.46875 1.03125 -1.46875 1 -1.46875 C 0.882812 -1.46875 0.796875 -1.425781 0.734375 -1.34375 C 0.679688 -1.269531 0.65625 -1.171875 0.65625 -1.046875 C 0.65625 -0.960938 0.664062 -0.882812 0.6875 -0.8125 C 0.707031 -0.75 0.742188 -0.703125 0.796875 -0.671875 C 0.847656 -0.640625 0.914062 -0.625 1 -0.625 C 1.03125 -0.625 1.0625 -0.625 1.09375 -0.625 C 1.132812 -0.625 1.171875 -0.625 1.203125 -0.625 L 1.203125 0 L 0.890625 0 C 0.691406 0 0.53125 -0.0390625 0.40625 -0.125 C 0.28125 -0.21875 0.1875 -0.34375 0.125 -0.5 C 0.0625 -0.65625 0.03125 -0.835938 0.03125 -1.046875 Z M 0.03125 -1.046875 "/></g></g><g style="fill:#ffde59;fill-opacity:1;"><g transform="translate(126.879272, 151.6044)"><path style="stroke:none" d="M 0.03125 0 L 0.03125 -2.09375 L 0.765625 -2.09375 C 0.835938 -2.09375 0.910156 -2.082031 0.984375 -2.0625 C 1.066406 -2.039062 1.140625 -2.003906 1.203125 -1.953125 C 1.273438 -1.898438 1.332031 -1.832031 1.375 -1.75 C 1.425781 -1.664062 1.453125 -1.5625 1.453125 -1.4375 C 1.453125 -1.332031 1.4375 -1.242188 1.40625 -1.171875 C 1.382812 -1.109375 1.351562 -1.054688 1.3125 -1.015625 C 1.28125 -0.972656 1.25 -0.941406 1.21875 -0.921875 L 1.53125 0 L 0.90625 0 L 0.65625 -0.796875 L 0.65625 0 Z M 0.71875 -1.5 L 0.65625 -1.5 L 0.65625 -1.203125 L 0.703125 -1.203125 C 0.734375 -1.203125 0.753906 -1.210938 0.765625 -1.234375 C 0.785156 -1.253906 0.796875 -1.273438 0.796875 -1.296875 C 0.804688 -1.328125 0.804688 -1.359375 0.796875 -1.390625 C 0.796875 -1.421875 0.785156 -1.445312 0.765625 -1.46875 C 0.753906 -1.488281 0.738281 -1.5 0.71875 -1.5 Z M 0.71875 -1.5 "/></g></g><g style="fill:#ffde59;fill-opacity:1;"><g transform="translate(128.625873, 151.6044)"><path style="stroke:none" d="M 0.625 0 L 0 0 L 0.546875 -2.09375 L 1.171875 -2.09375 L 1.71875 0 L 1.078125 0 L 1.03125 -0.203125 L 0.671875 -0.203125 Z M 0.859375 -1.046875 L 0.78125 -0.71875 L 0.921875 -0.71875 Z M 0.859375 -1.046875 "/></g></g><g style="fill:#ffde59;fill-opacity:1;"><g transform="translate(130.129545, 151.6044)"><path style="stroke:none" d="M 0.546875 0 L 0 -2.09375 L 0.625 -2.09375 L 0.84375 -1.046875 L 1.046875 -2.09375 L 1.5625 -2.09375 L 1.78125 -1.046875 L 2 -2.09375 L 2.625 -2.09375 L 2.078125 0 L 1.484375 0 L 1.3125 -0.84375 L 1.140625 0 Z M 0.546875 0 "/></g></g><g style="fill:#ffde59;fill-opacity:1;"><g transform="translate(133.017515, 151.6044)"><path style="stroke:none" d="M 0.03125 -2.09375 L 0.65625 -2.09375 L 0.65625 -0.625 L 1.15625 -0.625 L 1.15625 0 L 0.03125 0 Z M 0.03125 -2.09375 "/></g></g><g clip-rule="nonzero" clip-path="url(#ffce77eb73)"><g clip-rule="nonzero" clip-path="url(#d5d8d004d5)"><path style=" stroke:none;fill-rule:nonzero;fill:#ffffff;fill-opacity:1;" d="M 128.351562 166.820312 L 129.953125 161.847656 L 133.894531 163.113281 L 132.296875 168.089844 Z M 128.351562 166.820312 "/></g></g><g style="fill:#fffbf0;fill-opacity:1;"><g transform="translate(248.142058, 185.54214)"><path style="stroke:none" d="M 2.8125 0.09375 C 2.457031 0.09375 2.144531 0.0195312 1.875 -0.125 C 1.613281 -0.269531 1.410156 -0.46875 1.265625 -0.71875 C 1.117188 -0.96875 1.046875 -1.253906 1.046875 -1.578125 C 1.046875 -1.898438 1.117188 -2.1875 1.265625 -2.4375 C 1.410156 -2.6875 1.613281 -2.882812 1.875 -3.03125 C 2.144531 -3.175781 2.457031 -3.25 2.8125 -3.25 C 3.175781 -3.25 3.488281 -3.175781 3.75 -3.03125 C 4.019531 -2.894531 4.226562 -2.695312 4.375 -2.4375 C 4.519531 -2.1875 4.59375 -1.90625 4.59375 -1.59375 C 4.59375 -1.101562 4.429688 -0.695312 4.109375 -0.375 C 3.785156 -0.0625 3.351562 0.09375 2.8125 0.09375 Z M 2.8125 0.09375 "/></g></g><g style="fill:#fffbf0;fill-opacity:1;"><g transform="translate(255.315163, 185.925475)"><path style="stroke:none" d="M 2.8125 0.09375 C 2.457031 0.09375 2.144531 0.0195312 1.875 -0.125 C 1.613281 -0.269531 1.410156 -0.46875 1.265625 -0.71875 C 1.117188 -0.96875 1.046875 -1.253906 1.046875 -1.578125 C 1.046875 -1.898438 1.117188 -2.1875 1.265625 -2.4375 C 1.410156 -2.6875 1.613281 -2.882812 1.875 -3.03125 C 2.144531 -3.175781 2.457031 -3.25 2.8125 -3.25 C 3.175781 -3.25 3.488281 -3.175781 3.75 -3.03125 C 4.019531 -2.894531 4.226562 -2.695312 4.375 -2.4375 C 4.519531 -2.1875 4.59375 -1.90625 4.59375 -1.59375 C 4.59375 -1.101562 4.429688 -0.695312 4.109375 -0.375 C 3.785156 -0.0625 3.351562 0.09375 2.8125 0.09375 Z M 2.8125 0.09375 "/></g></g><g style="fill:#fffbf0;fill-opacity:1;"><g transform="translate(262.488239, 185.54214)"><path style="stroke:none" d="M 2.8125 0.09375 C 2.457031 0.09375 2.144531 0.0195312 1.875 -0.125 C 1.613281 -0.269531 1.410156 -0.46875 1.265625 -0.71875 C 1.117188 -0.96875 1.046875 -1.253906 1.046875 -1.578125 C 1.046875 -1.898438 1.117188 -2.1875 1.265625 -2.4375 C 1.410156 -2.6875 1.613281 -2.882812 1.875 -3.03125 C 2.144531 -3.175781 2.457031 -3.25 2.8125 -3.25 C 3.175781 -3.25 3.488281 -3.175781 3.75 -3.03125 C 4.019531 -2.894531 4.226562 -2.695312 4.375 -2.4375 C 4.519531 -2.1875 4.59375 -1.90625 4.59375 -1.59375 C 4.59375 -1.101562 4.429688 -0.695312 4.109375 -0.375 C 3.785156 -0.0625 3.351562 0.09375 2.8125 0.09375 Z M 2.8125 0.09375 "/></g></g><path style="fill:none;stroke-width:2;stroke-linecap:butt;stroke-linejoin:miter;stroke:#29b554;stroke-opacity:1;stroke-miterlimit:4;" d="M 0.0011051 1.001356 L 19.751106 1.001356 " transform="matrix(0.75,0,0,0.75,128.350734,185.932577)"/></g></svg>